<svg name="ohif-logo" class="header-logo-image" xmlns="http://www.w3.org/2000/svg" width="35" height="50" viewBox="0 0 35 50.57" shape-rendering="geometricPrecision" text-rendering="geometricPrecision" image-rendering="optimizeQuality" fill-rule="evenodd" clip-rule="evenodd"><defs><style>.fil1{fill:#848688}.fil0{fill:#e05d00}</style></defs><g id="Layer_x0020_1"><g id="_1905110132272"><path class="fil0" d="M34.25 11.47h-3.89V3.63H19.88l-.01 16.04H3.66v11.51l16.22-.02v15.78h10.48v-9.27h3.89l.02 10.15c-.12 1.83-1.12 2.52-2.83 2.75H18.63c-1.81-.16-2.67-.93-2.92-2.78V34.7H2.81C.95 34.45.19 33.89.03 32.08v-13.4c.22-1.72.91-2.42 2.75-2.54l12.93.02V2.78C15.96.92 17.04.16 18.85 0h12.37c1.72.22 2.93.91 3.05 2.75l-.02 8.72z"></path><path class="fil1" d="M32.52 20.15h2.45v14.24h-2.45zM32.49 15.9h2.46v2.56h-2.46z"></path><path class="fil1" transform="matrix(0 -.34097 .11682 0 22.796 28.74)" d="M0 0h4.06v75.75H0z"></path><path class="fil1" d="M21.87 15.98h2.45v18.4h-2.45z"></path></g></g></svg>
